<svg width="20" height="24" viewBox="0 0 20 24" fill="none" xmlns="http://www.w3.org/2000/svg">
<path d="M4.3406 13H13.6489L9.58226 17.88C9.25726 18.27 9.25726 18.91 9.58226 19.3C9.90726 19.69 10.4323 19.69 10.7573 19.3L16.2489 12.71C16.5739 12.32 16.5739 11.69 16.2489 11.3L10.7656 4.69996C10.6099 4.5127 10.3985 4.40747 10.1781 4.40747C9.95766 4.40747 9.74629 4.5127 9.5906 4.69996C9.2656 5.08996 9.2656 5.71996 9.5906 6.10996L13.6489 11H4.3406C3.88226 11 3.50726 11.45 3.50726 12C3.50726 12.55 3.88226 13 4.3406 13Z" fill="white"/>
</svg>
