<svg width="121" height="120" viewBox="0 0 121 120" fill="none" xmlns="http://www.w3.org/2000/svg">
<path d="M86.5757 92.124C86.3601 92.124 86.1466 92.081 85.9478 91.9974C85.749 91.9139 85.5688 91.7915 85.4179 91.6375C84.6906 90.8977 83.8872 90.2368 83.0211 89.6657C82.6829 89.4205 82.4523 89.0544 82.3774 88.6434C82.3025 88.2325 82.389 87.8085 82.619 87.4598C82.8489 87.1111 83.2046 86.8646 83.6118 86.7716C84.019 86.6787 84.4464 86.7464 84.8049 86.9608C85.8592 87.6588 86.8376 88.4654 87.7238 89.3673C87.9473 89.5953 88.0986 89.8843 88.1585 90.1979C88.2185 90.5116 88.1845 90.8359 88.0609 91.1304C87.9372 91.4248 87.7294 91.6761 87.4634 91.8529C87.1975 92.0297 86.8853 92.124 86.566 92.124H86.5757Z" fill="#71B86E"/>
<path d="M91.1487 116.756H29.6568C29.2267 116.756 28.8142 116.585 28.5101 116.281C28.206 115.977 28.0352 115.565 28.0352 115.135V101.756C28.0403 97.0485 29.9128 92.535 33.2417 89.206C36.5706 85.8771 41.0841 84.0047 45.7919 83.9995H74.9487C75.3787 83.9995 75.7912 84.1704 76.0953 84.4745C76.3994 84.7786 76.5703 85.1911 76.5703 85.6211C76.5703 86.0512 76.3994 86.4637 76.0953 86.7678C75.7912 87.0719 75.3787 87.2428 74.9487 87.2428H45.7919C41.944 87.247 38.2549 88.7775 35.5341 91.4984C32.8132 94.2193 31.2827 97.9084 31.2784 101.756V113.513H89.527V101.756C89.5302 100.624 89.3984 99.4946 89.1346 98.393C89.0784 98.1844 89.0645 97.9667 89.0936 97.7526C89.1228 97.5385 89.1944 97.3324 89.3043 97.1464C89.4142 96.9604 89.5602 96.7982 89.7337 96.6694C89.9071 96.5406 90.1046 96.4478 90.3144 96.3963C90.5242 96.3449 90.7422 96.3359 90.9556 96.3699C91.169 96.4039 91.3734 96.4802 91.5568 96.5943C91.7403 96.7084 91.8991 96.858 92.024 97.0343C92.1488 97.2107 92.2371 97.4102 92.2838 97.6211C92.6089 98.9732 92.7722 100.359 92.7703 101.75V115.135C92.7703 115.565 92.5994 115.977 92.2953 116.281C91.9912 116.585 91.5787 116.756 91.1487 116.756Z" fill="#71B86E"/>
<path d="M60.3994 77.8276C57.0382 77.8276 53.7524 76.8308 50.9577 74.9635C48.1629 73.0961 45.9847 70.4419 44.6984 67.3365C43.4121 64.2312 43.0756 60.8141 43.7313 57.5175C44.3871 54.2209 46.0057 51.1927 48.3824 48.816C50.7591 46.4392 53.7873 44.8207 57.0839 44.1649C60.3805 43.5092 63.7976 43.8457 66.9029 45.132C70.0083 46.4183 72.6625 48.5965 74.5299 51.3913C76.3973 54.186 77.394 57.4718 77.394 60.833C77.3893 65.3388 75.5972 69.6587 72.4112 72.8447C69.2251 76.0308 64.9052 77.8228 60.3994 77.8276ZM60.3994 47.0816C57.6796 47.0816 55.0209 47.8881 52.7595 49.3991C50.4981 50.9102 48.7356 53.0578 47.6948 55.5706C46.654 58.0833 46.3817 60.8482 46.9123 63.5157C47.4429 66.1832 48.7526 68.6335 50.6757 70.5566C52.5989 72.4798 55.0491 73.7895 57.7166 74.3201C60.3841 74.8507 63.1491 74.5784 65.6618 73.5376C68.1745 72.4968 70.3222 70.7342 71.8332 68.4728C73.3442 66.2114 74.1507 63.5527 74.1507 60.833C74.1469 57.1871 72.6968 53.6916 70.1188 51.1136C67.5407 48.5355 64.0453 47.0855 60.3994 47.0816Z" fill="#71B86E"/>
<path d="M76.1974 116.756H44.6082C44.1781 116.756 43.7656 116.585 43.4615 116.281C43.1574 115.977 42.9866 115.565 42.9866 115.135V105.878C42.9866 105.448 43.1574 105.036 43.4615 104.732C43.7656 104.428 44.1781 104.257 44.6082 104.257C45.0383 104.257 45.4507 104.428 45.7549 104.732C46.059 105.036 46.2298 105.448 46.2298 105.878V113.513H74.5758V105.878C74.5758 105.448 74.7466 105.036 75.0507 104.732C75.3548 104.428 75.7673 104.257 76.1974 104.257C76.6275 104.257 77.0399 104.428 77.344 104.732C77.6482 105.036 77.819 105.448 77.819 105.878V115.135C77.819 115.565 77.6482 115.977 77.344 116.281C77.0399 116.585 76.6275 116.756 76.1974 116.756Z" fill="#71B86E"/>
<path d="M109.929 48.8104C109.666 48.8103 109.407 48.7463 109.175 48.6239L100.796 44.2196L92.4184 48.6239C92.1506 48.7652 91.8485 48.8286 91.5465 48.807C91.2444 48.7855 90.9545 48.6797 90.7094 48.5019C90.4643 48.324 90.274 48.081 90.1599 47.8005C90.0458 47.52 90.0125 47.2132 90.0638 46.9147L91.6644 37.5855L84.8876 30.9726C84.6708 30.7615 84.5174 30.494 84.4447 30.2003C84.372 29.9066 84.3829 29.5984 84.4762 29.3106C84.5695 29.0228 84.7415 28.7668 84.9727 28.5716C85.2038 28.3765 85.485 28.2498 85.7844 28.2061L95.1525 26.8439L99.3411 18.3564C99.4903 18.1031 99.7029 17.8933 99.958 17.7474C100.213 17.6016 100.502 17.5249 100.796 17.5249C101.09 17.5249 101.378 17.6016 101.633 17.7474C101.889 17.8933 102.101 18.1031 102.25 18.3564L106.439 26.8439L115.807 28.2061C116.107 28.2496 116.388 28.376 116.619 28.5711C116.851 28.7662 117.023 29.0222 117.116 29.31C117.21 29.5979 117.221 29.9061 117.148 30.2C117.076 30.4938 116.922 30.7614 116.705 30.9726L109.927 37.5791L111.528 46.9082C111.568 47.1411 111.556 47.3798 111.494 47.6077C111.432 47.8356 111.321 48.0473 111.169 48.2278C111.017 48.4084 110.827 48.5535 110.612 48.653C110.398 48.7525 110.165 48.804 109.929 48.8039V48.8104ZM100.796 40.7655C101.059 40.7651 101.317 40.8291 101.55 40.952L107.775 44.2245L106.585 37.2969C106.541 37.0374 106.56 36.7709 106.642 36.5206C106.723 36.2703 106.865 36.0436 107.054 35.8601L112.089 30.9515L105.129 29.9412C104.869 29.9034 104.621 29.8029 104.409 29.6484C104.196 29.4939 104.024 29.29 103.908 29.0542L100.796 22.7477L97.6838 29.0477C97.5675 29.2835 97.3955 29.4874 97.1828 29.6419C96.9701 29.7965 96.7229 29.8969 96.4628 29.9347L89.5028 30.945L94.5395 35.8536C94.7281 36.0373 94.8692 36.264 94.9506 36.5143C95.0319 36.7646 95.0511 37.031 95.0065 37.2904L93.8163 44.2212L100.042 40.9488C100.274 40.8259 100.533 40.7619 100.796 40.7623V40.7655Z" fill="#71B86E"/>
<path d="M69.633 34.5936C69.3705 34.5934 69.1118 34.53 68.879 34.4087L60.5 29.9995L52.1211 34.4055C51.8533 34.5463 51.5514 34.6093 51.2497 34.5875C50.9479 34.5657 50.6582 34.46 50.4134 34.2821C50.1686 34.1043 49.9785 33.8616 49.8644 33.5813C49.7504 33.3011 49.717 32.9945 49.7681 32.6963L51.3687 23.3655L44.5903 16.759C44.3735 16.5478 44.2201 16.2802 44.1475 15.9864C44.0748 15.6925 44.0859 15.3843 44.1794 15.0964C44.2729 14.8086 44.445 14.5526 44.6764 14.3575C44.9078 14.1624 45.1892 14.036 45.4887 13.9925L54.8568 12.6319L59.0406 4.14761C59.1897 3.89441 59.4023 3.68452 59.6574 3.53869C59.9126 3.39287 60.2013 3.31616 60.4952 3.31616C60.789 3.31616 61.0778 3.39287 61.3329 3.53869C61.588 3.68452 61.8006 3.89441 61.9498 4.14761L66.1433 12.6352L75.5114 13.9957C75.8109 14.0392 76.0923 14.1657 76.3237 14.3608C76.555 14.5558 76.7272 14.8118 76.8207 15.0997C76.9142 15.3875 76.9252 15.6958 76.8526 15.9896C76.78 16.2834 76.6266 16.551 76.4098 16.7622L69.6314 23.3687L71.2319 32.6995C71.2716 32.9322 71.26 33.1707 71.1979 33.3985C71.1358 33.6262 71.0248 33.8376 70.8725 34.018C70.7202 34.1983 70.5304 34.3433 70.3163 34.4427C70.1023 34.5421 69.8691 34.5936 69.633 34.5936ZM60.5 26.5503C60.7626 26.55 61.0214 26.6134 61.2541 26.7352L67.473 30.0076L66.2827 23.0768C66.2384 22.8176 66.2578 22.5516 66.3391 22.3016C66.4205 22.0516 66.5614 21.8251 66.7498 21.6417L71.7865 16.733L64.833 15.7292C64.5727 15.6913 64.3254 15.5906 64.1127 15.4357C63.9 15.2809 63.7281 15.0767 63.6119 14.8406L60.5 8.52923L57.3881 14.8341C57.272 15.0702 57.1001 15.2744 56.8874 15.4292C56.6746 15.5841 56.4274 15.6848 56.1671 15.7227L49.2071 16.733L54.2438 21.6417C54.4322 21.8251 54.5731 22.0516 54.6545 22.3016C54.7358 22.5516 54.7552 22.8176 54.7108 23.0768L53.5271 30.0076L59.7525 26.7352C59.9832 26.6144 60.2396 26.551 60.5 26.5503Z" fill="#71B86E"/>
<path d="M29.3373 48.8102C29.074 48.8103 28.8146 48.7463 28.5816 48.6237L20.2043 44.2194L11.8254 48.6205C11.5576 48.7613 11.2557 48.8243 10.9539 48.8025C10.6522 48.7808 10.3625 48.675 10.1177 48.4971C9.8729 48.3193 9.68274 48.0766 9.5687 47.7963C9.45467 47.5161 9.42131 47.2095 9.47241 46.9113L11.073 37.5821L4.29457 30.9724C4.08059 30.7608 3.92968 30.4939 3.85872 30.2015C3.78777 29.9091 3.79956 29.6027 3.89279 29.3167C3.98602 29.0306 4.15701 28.7761 4.38662 28.5816C4.61623 28.3872 4.89542 28.2604 5.19295 28.2156L14.5611 26.8534L18.7497 18.3659C18.8988 18.1127 19.1115 17.9028 19.3666 17.757C19.6217 17.6111 19.9104 17.5344 20.2043 17.5344C20.4982 17.5344 20.7869 17.6111 21.042 17.757C21.2971 17.9028 21.5098 18.1127 21.6589 18.3659L25.8475 26.8534L35.2157 28.2156C35.515 28.2593 35.7962 28.386 36.0274 28.5812C36.2586 28.7764 36.4305 29.0323 36.5238 29.3202C36.6171 29.608 36.628 29.9161 36.5553 30.2098C36.4826 30.5035 36.3292 30.771 36.1124 30.9821L29.3357 37.5886L30.9362 46.9178C30.9761 47.1506 30.9647 47.3893 30.9027 47.6172C30.8408 47.8451 30.7298 48.0568 30.5775 48.2373C30.4252 48.4179 30.2353 48.563 30.0211 48.6625C29.8068 48.762 29.5735 48.8135 29.3373 48.8134V48.8102ZM20.2043 40.7653C20.4671 40.7649 20.726 40.8289 20.9584 40.9518L27.1838 44.2242L25.9935 37.2967C25.9489 37.0373 25.9681 36.7709 26.0495 36.5206C26.1308 36.2703 26.2719 36.0435 26.4605 35.8599L31.4973 30.9513L24.5373 29.941C24.2771 29.9032 24.03 29.8027 23.8172 29.6482C23.6045 29.4937 23.4326 29.2897 23.3162 29.054L20.2043 22.7475L17.0924 29.054C16.976 29.2897 16.8041 29.4937 16.5914 29.6482C16.3786 29.8027 16.1315 29.9032 15.8713 29.941L8.91133 30.9513L13.9384 35.8599C14.1287 36.0426 14.2716 36.2689 14.3547 36.5193C14.4378 36.7696 14.4585 37.0365 14.4151 37.2967L13.2248 44.221L19.4502 40.9486C19.6826 40.8257 19.9415 40.7617 20.2043 40.7621V40.7653Z" fill="#71B86E"/>
</svg>
