<svg width="81" height="120" viewBox="0 0 81 120" fill="none" xmlns="http://www.w3.org/2000/svg">
<path d="M79.1845 97.2283C78.2137 97.2283 77.4267 98.0154 77.4267 98.9862V115.513C77.4267 116.048 76.9912 116.483 76.4561 116.483H67.0068V81.8669C67.0068 80.8961 66.2198 80.1091 65.249 80.1091C64.2783 80.1091 63.4912 80.8961 63.4912 81.8669V116.484H44.4635L49.9814 110.413C50.5842 109.75 50.8685 108.805 50.7417 107.885C50.7393 107.867 50.7365 107.85 50.7335 107.832L45.4781 76.7847L46.894 74.6533C47.6768 75.2093 48.2798 75.7446 49.4107 75.7446C50.561 75.7446 51.6365 75.1008 52.1657 74.0409V74.0407L57.7087 62.9313L70.3359 67.8215C70.7927 68.0175 77.4262 71.0048 77.4262 78.893V90.7828C77.426 91.7533 78.213 92.5406 79.184 92.5406C80.1548 92.5406 80.9418 91.7536 80.9418 90.7828V78.893C80.9418 68.4998 72.0429 64.7219 71.6641 64.5661C71.6531 64.5614 71.6418 64.5569 71.6306 64.5527L50.6147 56.4138V51.4849C53.9526 48.889 56.2671 45.0408 56.8481 40.6504C58.5124 40.5333 60.0567 39.9117 61.3179 38.8272C62.9648 37.4109 63.9098 35.3496 63.9098 33.1727C63.9098 31.3662 63.258 29.6412 62.0965 28.297V21.7854C62.0962 9.77272 52.3232 -0.000488281 40.3106 -0.000488281C28.2979 -0.000488281 18.525 9.77272 18.525 21.7854V28.4676C17.351 29.7982 16.7125 31.436 16.7125 33.1725C16.7125 35.3501 17.6571 37.4112 19.3045 38.8277C20.5647 39.9117 22.1081 40.5326 23.7719 40.65C24.3576 45.1226 26.7396 49.1142 30.3618 51.7451V56.4138L9.36864 64.5525C9.35763 64.5567 9.34661 64.5611 9.3356 64.5656C8.95661 64.7215 0.0578613 68.4994 0.0578613 78.8925V115.512C0.0578613 117.986 2.07044 119.999 4.54427 119.999H21.292C22.2628 119.999 23.0498 119.212 23.0498 118.241C23.0498 117.27 22.2628 116.483 21.292 116.483H17.5099V81.8669C17.5099 80.8961 16.7229 80.1091 15.7521 80.1091C14.7813 80.1091 13.9943 80.8961 13.9943 81.8669V116.484H4.5445C4.00942 116.484 3.57395 116.048 3.57395 115.513V78.8927C3.57395 70.9781 10.252 67.9976 10.6622 67.8223L23.2795 62.9308L28.8229 74.0407C29.3533 75.1031 30.4303 75.7446 31.5782 75.7446C32.7035 75.7446 33.3007 75.2175 34.095 74.6533L35.5108 76.7847L30.2559 107.832C30.2529 107.85 30.2503 107.867 30.2477 107.885C30.1207 108.805 30.405 109.75 31.008 110.414L36.5259 116.484H29.4958C28.525 116.484 27.738 117.271 27.738 118.242C27.738 119.212 28.525 120 29.4958 120H76.4564C78.9302 120 80.9428 117.987 80.9428 115.513V98.9864C80.9423 98.0154 80.1553 97.2283 79.1845 97.2283ZM54.416 61.6563L49.2482 72.0133C49.1198 71.9222 46.3811 69.9764 43.0333 67.5991C44.486 65.8059 42.7865 67.9036 49.4165 59.7201L54.416 61.6563ZM44.0257 72.6166L42.6855 74.6339H38.302L36.9618 72.6166L40.4939 70.1081L44.0257 72.6166ZM33.8772 56.981V53.6913C36.0129 54.5522 38.2952 54.9513 40.5241 54.9513C42.8287 54.9513 45.0888 54.4601 47.0988 53.5812V56.9953L40.4939 65.148L33.8772 56.981ZM60.394 33.1727C60.3937 34.3242 59.895 35.4138 59.0254 36.1617C58.4505 36.6562 57.7561 36.9724 56.9955 37.0962V29.25C59.0158 29.5781 60.394 31.2539 60.394 33.1727ZM23.6266 37.0962C21.5833 36.7645 20.2282 35.0751 20.2282 33.1725C20.2282 31.2933 21.7861 29.7637 23.6266 29.3383V37.0962ZM23.7211 25.7564C23.1611 25.8206 22.5194 25.9722 22.0411 26.1349V21.7854C22.0411 11.7112 30.2367 3.51537 40.3108 3.51537C50.385 3.51537 58.5806 11.7112 58.5806 21.7854V26.0142C58.0697 25.8588 57.5397 25.7562 56.9957 25.7079C56.9957 24.0117 57.0105 24.3389 51.4617 18.3733C50.4412 17.2769 48.7533 17.0472 47.4686 17.8865C41.3444 21.8871 33.8737 23.8969 26.9807 23.4019C25.4688 23.2887 24.0916 24.2845 23.7211 25.7564ZM27.1425 38.4801V27.5133V26.9355C34.7304 27.3799 42.6858 25.1257 49.1125 21.0098C51.6574 23.7422 53.0355 25.1754 53.4799 25.7205C53.4799 27.0996 53.4799 36.9014 53.4799 38.4799C53.4799 45.6159 47.6613 51.4352 40.5243 51.4352C32.5101 51.4354 27.1425 45.2184 27.1425 38.4801ZM31.7397 72.0133L26.572 61.6563L31.5625 59.7234L37.9472 67.6043C34.7004 69.9098 32.0343 71.804 31.7397 72.0133ZM33.7565 108.211L38.8446 78.1493H42.1425L47.2305 108.211L40.4936 115.623L33.7565 108.211Z" fill="#71B86E"/>
</svg>
