<svg width="48" height="32" viewBox="0 0 48 32" fill="none" xmlns="http://www.w3.org/2000/svg">
<path d="M45.5384 0H2.46159C1.10766 0 0 1.10766 0 2.4615V29.5385C0 30.8922 1.10766 32.0001 2.46159 32.0001H45.5385C46.8923 32.0001 48.0001 30.8924 48.0001 29.5385V2.4615C48 1.10766 46.8923 0 45.5384 0ZM44.6147 1.84603L25.416 16.2462C25.0708 16.5089 24.5409 16.6732 23.9999 16.6708C23.459 16.6732 22.9292 16.5089 22.5839 16.2462L3.38522 1.84603H44.6147ZM34.3594 17.1964L44.8209 30.1195C44.8314 30.1325 44.8443 30.1423 44.8554 30.154H3.14456C3.15562 30.1418 3.16856 30.1325 3.17906 30.1195L13.6406 17.1964C13.9612 16.8001 13.9004 16.2191 13.5034 15.8978C13.1071 15.5773 12.5261 15.6381 12.2055 16.0344L1.84612 28.8314V2.99991L21.4768 17.723C22.2147 18.2725 23.1125 18.5144 23.9998 18.5168C24.8859 18.515 25.7844 18.2731 26.5228 17.723L46.1535 2.99991V28.8312L35.7944 16.0344C35.4738 15.6382 34.8923 15.5772 34.4965 15.8978C34.0996 16.2184 34.0387 16.8001 34.3594 17.1964Z" fill="#71B86E"/>
</svg>
