<svg width="121" height="118" viewBox="0 0 121 118" fill="none" xmlns="http://www.w3.org/2000/svg">
<path d="M46.2151 13.7502H39.714C38.7432 13.7502 37.9562 14.5373 37.9562 15.5081C37.9562 16.4788 38.7432 17.2659 39.714 17.2659H46.2151C47.1859 17.2659 47.9729 16.4788 47.9729 15.5081C47.9729 14.5373 47.1859 13.7502 46.2151 13.7502Z" fill="#71B86E"/>
<path d="M56.0349 17.2659H81.286C82.257 17.2659 83.0438 16.4788 83.0438 15.5081C83.0438 14.5373 82.257 13.7502 81.286 13.7502H56.0349C55.0641 13.7502 54.2771 14.5373 54.2771 15.5081C54.2771 16.4788 55.0641 17.2659 56.0349 17.2659Z" fill="#71B86E"/>
<path d="M46.2151 23.8408H39.714C38.7432 23.8408 37.9562 24.6279 37.9562 25.5986C37.9562 26.5694 38.7432 27.3564 39.714 27.3564H46.2151C47.1859 27.3564 47.9729 26.5694 47.9729 25.5986C47.9729 24.6279 47.1859 23.8408 46.2151 23.8408Z" fill="#71B86E"/>
<path d="M56.0349 27.3564H81.286C82.257 27.3564 83.0438 26.5694 83.0438 25.5986C83.0438 24.6279 82.257 23.8408 81.286 23.8408H56.0349C55.0641 23.8408 54.2771 24.6279 54.2771 25.5986C54.2771 26.5694 55.0641 27.3564 56.0349 27.3564Z" fill="#71B86E"/>
<path d="M46.2151 33.9316H39.714C38.7432 33.9316 37.9562 34.7187 37.9562 35.6895C37.9562 36.6602 38.7432 37.4473 39.714 37.4473H46.2151C47.1859 37.4473 47.9729 36.6602 47.9729 35.6895C47.9729 34.7187 47.1859 33.9316 46.2151 33.9316Z" fill="#71B86E"/>
<path d="M56.0349 37.4473H81.286C82.257 37.4473 83.0438 36.6602 83.0438 35.6895C83.0438 34.7187 82.257 33.9316 81.286 33.9316H56.0349C55.0641 33.9316 54.2771 34.7187 54.2771 35.6895C54.2771 36.6602 55.0641 37.4473 56.0349 37.4473Z" fill="#71B86E"/>
<path d="M83.5887 96.1892V87.5975C83.5887 85.9217 82.2254 84.5581 80.5494 84.5581H40.4502C38.7744 84.5581 37.411 85.9215 37.411 87.5975V96.1892C37.411 97.865 38.7744 99.2286 40.4502 99.2286H80.5494C82.2254 99.2286 83.5887 97.865 83.5887 96.1892ZM80.0731 95.713H40.9266V88.0737H80.0731V95.713Z" fill="#71B86E"/>
<path d="M46.2151 44.0222H39.714C38.7432 44.0222 37.9562 44.8092 37.9562 45.78C37.9562 46.7508 38.7432 47.5378 39.714 47.5378H46.2151C47.1859 47.5378 47.9729 46.7508 47.9729 45.78C47.9729 44.8092 47.1859 44.0222 46.2151 44.0222Z" fill="#71B86E"/>
<path d="M56.0349 47.5378H81.286C82.257 47.5378 83.0438 46.7508 83.0438 45.78C83.0438 44.8092 82.257 44.0222 81.286 44.0222H56.0349C55.0641 44.0222 54.2771 44.8092 54.2771 45.78C54.2771 46.7508 55.0641 47.5378 56.0349 47.5378Z" fill="#71B86E"/>
<path d="M46.2151 54.1128H39.714C38.7432 54.1128 37.9562 54.8998 37.9562 55.8706C37.9562 56.8414 38.7432 57.6284 39.714 57.6284H46.2151C47.1859 57.6284 47.9729 56.8414 47.9729 55.8706C47.9729 54.8998 47.1859 54.1128 46.2151 54.1128Z" fill="#71B86E"/>
<path d="M56.0349 57.6284H81.286C82.257 57.6284 83.0438 56.8414 83.0438 55.8706C83.0438 54.8998 82.257 54.1128 81.286 54.1128H56.0349C55.0641 54.1128 54.2771 54.8998 54.2771 55.8706C54.2771 56.8414 55.0641 57.6284 56.0349 57.6284Z" fill="#71B86E"/>
<path d="M47.1709 104.892C46.2001 104.892 45.4131 105.679 45.4131 106.65C45.4131 107.621 46.2001 108.408 47.1709 108.408H73.8289C74.8 108.408 75.5868 107.621 75.5868 106.65C75.5868 105.679 74.8 104.892 73.8289 104.892H47.1709Z" fill="#71B86E"/>
<path d="M118.742 66.5747H111.241L115.754 36.0179C115.895 35.0574 115.232 34.1639 114.272 34.0222C113.311 33.8794 112.418 34.5439 112.276 35.5043L107.687 66.5747H92.8836V11.821L114.793 15.3486C114.949 15.3736 115.042 15.4632 115.093 15.5339C115.144 15.6047 115.2 15.7217 115.171 15.9L113.322 28.4173C113.181 29.3778 113.844 30.2712 114.804 30.413C114.891 30.4259 114.978 30.4322 115.063 30.4322C115.92 30.4322 116.671 29.8043 116.8 28.9311L118.645 16.4363C118.814 15.3875 118.565 14.3358 117.942 13.4747C117.32 12.6136 116.4 12.0464 115.351 11.8777L92.8836 8.25988V4.66949C92.8836 2.47668 91.0995 0.692383 88.9065 0.692383H58.2242C57.2534 0.692383 56.4664 1.47941 56.4664 2.4502C56.4664 3.42098 57.2534 4.20801 58.2242 4.20801H88.9067C89.1612 4.20801 89.3682 4.41496 89.3682 4.66949V66.5747H80.0483C77.8292 66.5747 75.8164 67.9714 75.0399 70.0503L73.2962 74.7186C73.0302 75.4304 72.3409 75.9087 71.581 75.9087H49.4195C48.6596 75.9087 47.9703 75.4304 47.7043 74.7186L45.9603 70.05C45.1838 67.9714 43.171 66.5747 40.952 66.5747H31.632V4.66949C31.632 4.4152 31.839 4.20801 32.0935 4.20801H51.196C52.1668 4.20801 52.9538 3.42098 52.9538 2.4502C52.9538 1.47941 52.1668 0.692383 51.196 0.692383H32.0935C29.9007 0.692383 28.1164 2.47645 28.1164 4.66949V8.25988L5.64875 11.8775C4.59992 12.0462 3.67977 12.6134 3.05727 13.4745C2.435 14.3356 2.18539 15.3872 2.35063 16.4136L9.75922 66.5747H2.25781C1.28703 66.5747 0.5 67.3615 0.5 68.3326V100.799C0.5 109.902 7.90531 117.307 17.0075 117.307H24.6233C25.5941 117.307 26.3811 116.52 26.3811 115.549C26.3811 114.578 25.5941 113.791 24.6233 113.791H17.0075C9.84383 113.791 4.01562 107.963 4.01562 100.8V70.0904H40.9517C41.7116 70.0904 42.4009 70.5685 42.6666 71.2805L44.4106 75.949C45.1873 78.0277 47.2002 79.4243 49.4192 79.4243H71.5808C73.7999 79.4243 75.8127 78.0277 76.5891 75.9488L78.3329 71.2805C78.5989 70.5687 79.2882 70.0904 80.048 70.0904H116.984V100.799C116.984 107.963 111.156 113.791 103.992 113.791H31.6515C30.6807 113.791 29.8937 114.578 29.8937 115.549C29.8937 116.52 30.6807 117.307 31.6515 117.307H103.993C113.095 117.307 120.5 109.902 120.5 100.799V68.3326C120.5 67.3618 119.713 66.5747 118.742 66.5747ZM5.82523 15.8775C5.80016 15.7214 5.8557 15.6045 5.9068 15.5339C5.95789 15.4632 6.05141 15.3736 6.2075 15.3486L28.1164 11.821V66.5747H13.3128L5.82523 15.8775Z" fill="#71B86E"/>
</svg>
