<svg width="70" height="65" viewBox="0 0 70 65" fill="none" xmlns="http://www.w3.org/2000/svg">
<path d="M65.3932 42.9797C65.3008 42.9919 65.8151 42.8664 57.5474 44.9477C56.9962 45.0865 56.6619 45.6457 56.8008 46.1968C56.9396 46.7485 57.4993 47.0823 58.0499 46.944L65.7185 45.0134C67.8056 44.7901 68.7786 47.5282 67.0483 48.6834C66.9778 48.7192 43.5465 60.5966 43.4798 60.6388C40.6706 62.4268 37.0834 62.4119 34.2945 60.6142C33.0972 59.8425 33.1917 59.9333 24.5907 55.7255C20.9634 53.9508 18.3833 53.6795 14.3074 52.9756V40.1139H29.3545C30.1299 40.1139 30.86 40.4157 31.409 40.9647L38.9664 48.5226C39.8792 49.4354 39.9165 50.9077 39.0487 51.8055C38.1451 52.7401 36.6705 52.7401 35.7621 51.8343L28.9534 45.023C28.5513 44.6208 27.8997 44.6208 27.4976 45.023C27.0954 45.4251 27.0954 46.0772 27.4976 46.4788L34.3073 53.2902C36.7651 55.7399 40.9884 54.4843 41.649 51.0722L54.0573 47.9491C54.6085 47.8102 54.9428 47.2505 54.8039 46.6994C54.6651 46.1482 54.1059 45.8139 53.5548 45.9528L41.5508 48.9745C41.3473 48.2754 40.9713 47.6163 40.4228 47.0679L32.8638 39.5088C31.926 38.571 30.68 38.0551 29.3545 38.0551H14.2759C13.9918 35.4559 11.7834 33.4259 9.10889 33.4259H5.19852C2.3317 33.4259 0 35.7576 0 38.625V50.4591C0 51.0274 0.460892 51.4883 1.02913 51.4883C1.59737 51.4883 2.05879 51.0274 2.05879 50.4591V38.625C2.05879 36.893 3.46817 35.4847 5.19852 35.4847H9.10889C10.6443 35.4847 11.9276 36.595 12.1968 38.0551C12.2705 38.4546 12.2486 37.0468 12.2486 56.886C12.2486 58.6179 10.8392 60.0273 9.10889 60.0273H5.19852C3.46817 60.0273 2.05879 58.6179 2.05879 56.886V54.5762C2.05879 54.008 1.59737 53.5471 1.02913 53.5471C0.460892 53.5471 0 54.008 0 54.5762V56.886C0 59.7528 2.3317 62.0861 5.19852 62.0861H9.10889C11.9757 62.0861 14.3074 59.7528 14.3074 56.886V55.0643C17.9908 55.7004 20.3663 55.9503 23.686 57.5749C32.2758 61.7769 32.1027 61.6509 33.1794 62.3446C36.6294 64.5684 41.061 64.594 44.5415 62.4033C44.6114 62.3676 68.0496 50.4869 68.1158 50.4447C69.2956 49.6938 70 48.4105 70 47.0123C70 44.5621 67.8397 42.6512 65.3932 42.9797Z" fill="#71B86E"/>
<path d="M10.6493 54.4876C10.6493 52.5602 9.08127 50.9922 7.15385 50.9922C5.22644 50.9922 3.65845 52.5602 3.65845 54.4876C3.65845 56.415 5.22644 57.983 7.15385 57.983C9.08127 57.983 10.6493 56.415 10.6493 54.4876ZM5.71724 54.4876C5.71724 53.6956 6.36131 53.051 7.15385 53.051C7.94586 53.051 8.59047 53.6951 8.59047 54.4876C8.59047 55.2796 7.94586 55.9242 7.15385 55.9242C6.36131 55.9242 5.71724 55.2796 5.71724 54.4876Z" fill="#71B86E"/>
<path d="M48.4989 42.139C60.0767 42.139 69.4959 32.7199 69.4959 21.142C69.4959 2.97553 47.9397 -6.48316 34.5359 5.4605C34.1113 5.83862 34.074 6.4891 34.4521 6.91367C34.8307 7.33825 35.4812 7.37563 35.9052 6.99752C39.375 3.9064 43.8472 2.20382 48.4989 2.20382C58.9418 2.20382 67.4371 10.6991 67.4371 21.142C67.4371 31.5845 58.9418 40.0803 48.4989 40.0803C32.946 40.0803 24.0721 22.2892 33.275 9.87502C33.6136 9.4184 33.518 8.7738 33.0614 8.4352C32.6048 8.09661 31.9602 8.19274 31.6216 8.64936C21.4392 22.3837 31.2253 42.139 48.4989 42.139Z" fill="#71B86E"/>
<path d="M42.879 14.2677C42.879 15.5821 41.8136 16.6475 40.4987 16.6475C39.1844 16.6475 38.1184 15.5821 38.1184 14.2677C38.1184 12.9529 39.1844 11.8875 40.4987 11.8875C41.8136 11.8875 42.879 12.9529 42.879 14.2677Z" fill="#71B86E"/>
<path d="M58.8792 14.2677C58.8792 15.5821 57.8138 16.6475 56.4989 16.6475C55.1846 16.6475 54.1187 15.5821 54.1187 14.2677C54.1187 12.9529 55.1846 11.8875 56.4989 11.8875C57.8138 11.8875 58.8792 12.9529 58.8792 14.2677Z" fill="#71B86E"/>
<path d="M43.5987 18.9124C43.0305 18.9124 42.5696 19.3732 42.5696 19.942V21.9912C42.5696 25.2607 45.2292 27.9203 48.4987 27.9203C51.7682 27.9203 54.4283 25.2607 54.4283 21.9912V19.942C54.4283 19.3732 53.9674 18.9124 53.3987 18.9124C52.8304 18.9124 52.3695 19.3732 52.3695 19.942V21.9912C52.3695 24.1253 50.6333 25.8615 48.4987 25.8615C46.3646 25.8615 44.6278 24.1253 44.6278 21.9912V19.942C44.6278 19.3732 44.1669 18.9124 43.5987 18.9124Z" fill="#71B86E"/>
</svg>
