<svg width="40" height="40" viewBox="0 0 40 40" fill="none" xmlns="http://www.w3.org/2000/svg">
<g clip-path="url(#clip0)">
<path d="M18.1629 30.494C17.858 30.7986 17.858 31.2933 18.1629 31.5984C18.4683 31.9033 18.9627 31.9033 19.2673 31.5984C19.5728 31.2933 19.5728 30.7986 19.2673 30.494C18.9627 30.1885 18.4683 30.1885 18.1629 30.494Z" fill="#71B86E"/>
<path d="M38.1976 29.137L32.2662 24.0934C32.2388 24.0702 32.2098 24.0488 32.1796 24.0296C30.6235 23.039 28.6255 23.2584 27.3208 24.5627L24.0869 27.7964C23.8629 28.0207 23.5287 28.0869 23.2358 27.9661C19.584 26.4554 16.5842 24.1813 14.3194 21.2073C12.5925 18.9396 11.9699 17.1375 11.8878 16.8836C11.878 16.8293 11.8625 16.7753 11.8405 16.7225C11.7193 16.4295 11.7856 16.096 12.0102 15.872L15.2438 12.6374C16.5484 11.3328 16.7676 9.33479 15.777 7.7787C15.769 7.76618 15.7608 7.75398 15.7522 7.74177L11.4688 1.78932C10.1211 -0.301442 7.18566 -0.617299 5.42388 1.14418L4.77629 1.79176C4.77599 1.79237 4.77538 1.79298 4.77477 1.79328L2.46276 4.1053C-0.294202 6.86256 -0.745252 11.0056 1.15874 16.0874C2.7896 20.4404 6.05437 25.2045 10.3515 29.5017C14.7504 33.9005 19.6432 37.2257 24.1287 38.8648C28.5684 40.4868 33.291 40.6867 36.6336 37.3438L38.8141 35.1636C40.5679 33.4095 40.2618 30.4932 38.1976 29.137ZM31.2982 25.3208L37.2244 30.3602C37.2516 30.3834 37.2806 30.4047 37.3108 30.424C38.5766 31.2299 38.7683 32.9999 37.709 34.0589L37.5473 34.221L27.4396 26.6532L28.4256 25.6675C29.1962 24.8966 30.3705 24.7571 31.2982 25.3208ZM10.1636 2.64778C10.1715 2.66029 10.1797 2.6728 10.1883 2.6847L14.4699 8.63502C15.0516 9.56611 14.917 10.7548 14.1391 11.5327L13.1836 12.4885L6.3452 2.43232L6.52861 2.24891C7.59215 1.18537 9.36064 1.38648 10.1636 2.64778ZM24.6646 37.3972C20.3885 35.8347 15.6976 32.6383 11.4563 28.397C7.31322 24.2542 4.17571 19.6879 2.62145 15.5393C1.45476 12.4253 0.671984 8.10554 3.56749 5.21034L5.22063 3.55689L12.059 13.613L10.9057 14.7669C10.2496 15.4218 10.0433 16.3911 10.3708 17.2541C10.6174 18.2661 11.752 20.3666 12.8967 21.9144C14.5813 24.1923 17.6388 27.3414 22.6385 29.4099C23.5171 29.7733 24.519 29.5737 25.1916 28.9014L26.3235 27.7692L36.4313 35.337L35.5289 36.2391C32.4249 39.3433 27.9077 38.5822 24.6646 37.3972Z" fill="#71B86E"/>
<path d="M16.6971 28.6288C15.8719 27.9052 14.4446 26.6607 13.6929 25.8874C11.8496 23.9932 9.91575 21.697 8.76585 20.0381C8.52018 19.6835 8.03342 19.595 7.67881 19.8409C7.3242 20.0866 7.236 20.5734 7.48167 20.928C8.93186 23.0203 11.0626 25.4244 12.5729 26.9765C13.3664 27.7932 14.8059 29.0487 15.6668 29.8034C15.9906 30.0872 16.484 30.0561 16.7694 29.7311C17.0538 29.407 17.0215 28.9132 16.6971 28.6288Z" fill="#71B86E"/>
</g>
<defs>
<clipPath id="clip0">
<rect width="40" height="40" fill="white"/>
</clipPath>
</defs>
</svg>
